# MagicaVoxel @ Ephtracy

# material
mtllib blue-00.mtl
usemtl palette

# normals
vn -1 0 0
vn 1 0 0
vn 0 0 1
vn 0 0 -1
vn 0 -1 0
vn 0 1 0

# texcoords
vt 0.650391 0.5
vt 0.806641 0.5

# verts
v -2.5 2 -1.5
v -2.5 2 -2.5
v -2.5 3 -1.5
v -2.5 3 -2.5
v -2.5 5 1.5
v -2.5 5 -1.5
v -2.5 8 1.5
v -2.5 8 -1.5
v -1.5 0 1.5
v -1.5 0 0.5
v -1.5 1 0.5
v -1.5 1 -1.5
v -1.5 2 2.5
v -1.5 2 1.5
v -1.5 2 -1.5
v -1.5 3 2.5
v -1.5 3 1.5
v -1.5 3 -1.5
v -1.5 5 1.5
v -1.5 5 -1.5
v -1.5 8 1.5
v -1.5 8 -1.5
v -1.5 9 1.5
v -1.5 9 0.5
v -1.5 9 -0.5
v -1.5 9 -1.5
v -1.5 10 0.5
v -1.5 10 -0.5
v -0.5 0 -0.5
v -0.5 0 -1.5
v -0.5 1 -0.5
v -0.5 1 -1.5
v -0.5 10 0.5
v -0.5 10 -0.5
v -0.5 11 0.5
v -0.5 11 -0.5
v 0.5 10 1.5
v 0.5 10 0.5
v 0.5 10 -0.5
v 0.5 10 -1.5
v 0.5 11 1.5
v 0.5 11 0.5
v 0.5 11 -0.5
v 0.5 11 -1.5
v 2.5 9 1.5
v 2.5 9 -1.5
v 2.5 10 1.5
v 2.5 10 -1.5
v 3.5 8 0.5
v 3.5 8 -0.5
v 3.5 9 0.5
v 3.5 9 -0.5
v -1.5 2 -1.5
v -1.5 2 -2.5
v -1.5 3 -1.5
v -1.5 3 -2.5
v -0.5 0 1.5
v -0.5 0 0.5
v -0.5 1 1.5
v -0.5 1 0.5
v -0.5 2 2.5
v -0.5 2 1.5
v -0.5 3 2.5
v -0.5 3 1.5
v -0.5 8 1.5
v -0.5 8 -1.5
v -0.5 9 1.5
v -0.5 9 0.5
v -0.5 9 -0.5
v -0.5 9 -1.5
v -0.5 10 0.5
v -0.5 10 -0.5
v 0.5 0 -0.5
v 0.5 0 -1.5
v 0.5 1 1.5
v 0.5 1 -0.5
v 0.5 8 1.5
v 0.5 8 -1.5
v 2.5 10 1.5
v 2.5 10 -1.5
v 2.5 11 1.5
v 2.5 11 -1.5
v 3.5 9 1.5
v 3.5 9 0.5
v 3.5 9 -0.5
v 3.5 9 -1.5
v 3.5 10 1.5
v 3.5 10 -1.5
v 4.5 8 0.5
v 4.5 8 -0.5
v 4.5 9 0.5
v 4.5 9 -0.5
v -1.5 2 2.5
v -1.5 3 2.5
v -0.5 2 2.5
v -0.5 3 2.5
v -2.5 5 1.5
v -2.5 8 1.5
v -1.5 0 1.5
v -1.5 2 1.5
v -1.5 3 1.5
v -1.5 5 1.5
v -1.5 8 1.5
v -1.5 9 1.5
v -0.5 0 1.5
v -0.5 1 1.5
v -0.5 2 1.5
v -0.5 3 1.5
v -0.5 8 1.5
v -0.5 9 1.5
v 0.5 1 1.5
v 0.5 8 1.5
v 0.5 10 1.5
v 0.5 11 1.5
v 2.5 9 1.5
v 2.5 10 1.5
v 2.5 11 1.5
v 3.5 9 1.5
v 3.5 10 1.5
v -1.5 9 0.5
v -1.5 10 0.5
v -0.5 9 0.5
v -0.5 10 0.5
v -0.5 11 0.5
v 0.5 10 0.5
v 0.5 11 0.5
v 3.5 8 0.5
v 3.5 9 0.5
v 4.5 8 0.5
v 4.5 9 0.5
v -0.5 0 -0.5
v -0.5 1 -0.5
v 0.5 0 -0.5
v 0.5 1 -0.5
v -2.5 2 -1.5
v -2.5 3 -1.5
v -1.5 2 -1.5
v -1.5 3 -1.5
v -1.5 0 0.5
v -1.5 1 0.5
v -0.5 0 0.5
v -0.5 1 0.5
v -1.5 9 -0.5
v -1.5 10 -0.5
v -0.5 9 -0.5
v -0.5 10 -0.5
v -0.5 11 -0.5
v 0.5 10 -0.5
v 0.5 11 -0.5
v 3.5 8 -0.5
v 3.5 9 -0.5
v 4.5 8 -0.5
v 4.5 9 -0.5
v -2.5 5 -1.5
v -2.5 8 -1.5
v -1.5 1 -1.5
v -1.5 2 -1.5
v -1.5 3 -1.5
v -1.5 5 -1.5
v -1.5 8 -1.5
v -1.5 9 -1.5
v -0.5 0 -1.5
v -0.5 1 -1.5
v -0.5 8 -1.5
v -0.5 9 -1.5
v 0.5 0 -1.5
v 0.5 8 -1.5
v 0.5 10 -1.5
v 0.5 11 -1.5
v 2.5 9 -1.5
v 2.5 10 -1.5
v 2.5 11 -1.5
v 3.5 9 -1.5
v 3.5 10 -1.5
v -2.5 2 -2.5
v -2.5 3 -2.5
v -1.5 2 -2.5
v -1.5 3 -2.5
v -1.5 0 1.5
v -0.5 0 1.5
v -1.5 0 0.5
v -0.5 0 0.5
v -0.5 0 -0.5
v 0.5 0 -0.5
v -0.5 0 -1.5
v 0.5 0 -1.5
v -0.5 1 1.5
v 0.5 1 1.5
v -1.5 1 0.5
v -0.5 1 0.5
v -0.5 1 -0.5
v 0.5 1 -0.5
v -1.5 1 -1.5
v -0.5 1 -1.5
v -1.5 2 2.5
v -0.5 2 2.5
v -1.5 2 1.5
v -0.5 2 1.5
v -2.5 2 -1.5
v -1.5 2 -1.5
v -2.5 2 -2.5
v -1.5 2 -2.5
v -2.5 5 1.5
v -1.5 5 1.5
v -2.5 5 -1.5
v -1.5 5 -1.5
v 3.5 8 0.5
v 4.5 8 0.5
v 3.5 8 -0.5
v 4.5 8 -0.5
v 2.5 9 1.5
v 3.5 9 1.5
v 3.5 9 0.5
v 3.5 9 -0.5
v 2.5 9 -1.5
v 3.5 9 -1.5
v 0.5 10 1.5
v 2.5 10 1.5
v -0.5 10 0.5
v 0.5 10 0.5
v -0.5 10 -0.5
v 0.5 10 -0.5
v 0.5 10 -1.5
v 2.5 10 -1.5
v -1.5 3 2.5
v -0.5 3 2.5
v -1.5 3 1.5
v -0.5 3 1.5
v -2.5 3 -1.5
v -1.5 3 -1.5
v -2.5 3 -2.5
v -1.5 3 -2.5
v -2.5 8 1.5
v -1.5 8 1.5
v -0.5 8 1.5
v 0.5 8 1.5
v -2.5 8 -1.5
v -1.5 8 -1.5
v -0.5 8 -1.5
v 0.5 8 -1.5
v -1.5 9 1.5
v -0.5 9 1.5
v -1.5 9 0.5
v -0.5 9 0.5
v 3.5 9 0.5
v 4.5 9 0.5
v -1.5 9 -0.5
v -0.5 9 -0.5
v 3.5 9 -0.5
v 4.5 9 -0.5
v -1.5 9 -1.5
v -0.5 9 -1.5
v 2.5 10 1.5
v 3.5 10 1.5
v -1.5 10 0.5
v -0.5 10 0.5
v -1.5 10 -0.5
v -0.5 10 -0.5
v 2.5 10 -1.5
v 3.5 10 -1.5
v 0.5 11 1.5
v 2.5 11 1.5
v -0.5 11 0.5
v 0.5 11 0.5
v -0.5 11 -0.5
v 0.5 11 -0.5
v 0.5 11 -1.5
v 2.5 11 -1.5

# faces
f 3/2/1 2/2/1 1/2/1
f 4/2/1 2/2/1 3/2/1
f 7/2/1 6/2/1 5/2/1
f 8/2/1 6/2/1 7/2/1
f 11/2/1 10/2/1 9/2/1
f 14/2/1 11/2/1 9/2/1
f 14/2/1 12/2/1 11/2/1
f 15/2/1 12/2/1 14/2/1
f 16/2/1 14/2/1 13/2/1
f 16/2/1 15/2/1 14/2/1
f 17/2/1 15/2/1 16/2/1
f 18/2/1 15/2/1 17/2/1
f 19/2/1 18/2/1 17/2/1
f 20/2/1 18/2/1 19/2/1
f 23/2/1 22/2/1 21/2/1
f 24/2/1 22/2/1 23/2/1
f 25/2/1 22/2/1 24/2/1
f 26/2/1 22/2/1 25/2/1
f 27/2/1 25/2/1 24/2/1
f 28/2/1 25/2/1 27/2/1
f 31/2/1 30/2/1 29/2/1
f 32/2/1 30/2/1 31/2/1
f 35/2/1 34/2/1 33/2/1
f 36/2/1 34/2/1 35/2/1
f 41/1/1 38/1/1 37/1/1
f 42/1/1 38/1/1 41/1/1
f 43/1/1 40/1/1 39/1/1
f 44/1/1 40/1/1 43/1/1
f 47/1/1 46/1/1 45/1/1
f 48/1/1 46/1/1 47/1/1
f 51/1/1 50/1/1 49/1/1
f 52/1/1 50/1/1 51/1/1
f 53/2/2 54/2/2 55/2/2
f 55/2/2 54/2/2 56/2/2
f 57/2/2 58/2/2 59/2/2
f 59/2/2 58/2/2 60/2/2
f 61/2/2 62/2/2 63/2/2
f 63/2/2 62/2/2 64/2/2
f 65/2/2 66/2/2 67/2/2
f 67/2/2 66/2/2 68/2/2
f 68/2/2 66/2/2 69/2/2
f 69/2/2 66/2/2 70/2/2
f 68/2/2 69/2/2 71/2/2
f 71/2/2 69/2/2 72/2/2
f 73/2/2 74/2/2 76/2/2
f 75/2/2 76/2/2 77/2/2
f 76/2/2 74/2/2 78/2/2
f 77/2/2 76/2/2 78/2/2
f 79/1/2 80/1/2 81/1/2
f 81/1/2 80/1/2 82/1/2
f 83/1/2 84/1/2 87/1/2
f 85/1/2 86/1/2 87/1/2
f 84/1/2 85/1/2 87/1/2
f 87/1/2 86/1/2 88/1/2
f 89/1/2 90/1/2 91/1/2
f 91/1/2 90/1/2 92/1/2
f 95/2/3 94/2/3 93/2/3
f 96/2/3 94/2/3 95/2/3
f 102/2/3 98/2/3 97/2/3
f 103/2/3 98/2/3 102/2/3
f 105/2/3 100/2/3 99/2/3
f 106/2/3 100/2/3 105/2/3
f 107/2/3 100/2/3 106/2/3
f 108/2/3 104/2/3 103/2/3
f 108/2/3 102/2/3 101/2/3
f 108/2/3 103/2/3 102/2/3
f 109/2/3 104/2/3 108/2/3
f 110/2/3 104/2/3 109/2/3
f 111/2/3 107/2/3 106/2/3
f 111/2/3 109/2/3 108/2/3
f 111/2/3 108/2/3 107/2/3
f 112/2/3 109/2/3 111/2/3
f 116/1/3 114/1/3 113/1/3
f 117/1/3 114/1/3 116/1/3
f 118/1/3 116/1/3 115/1/3
f 119/1/3 116/1/3 118/1/3
f 122/2/3 121/2/3 120/2/3
f 123/2/3 121/2/3 122/2/3
f 125/2/3 124/2/3 123/2/3
f 126/2/3 124/2/3 125/2/3
f 129/1/3 128/1/3 127/1/3
f 130/1/3 128/1/3 129/1/3
f 133/2/3 132/2/3 131/2/3
f 134/2/3 132/2/3 133/2/3
f 137/2/3 136/2/3 135/2/3
f 138/2/3 136/2/3 137/2/3
f 139/2/4 140/2/4 141/2/4
f 141/2/4 140/2/4 142/2/4
f 143/2/4 144/2/4 145/2/4
f 145/2/4 144/2/4 146/2/4
f 146/2/4 147/2/4 148/2/4
f 148/2/4 147/2/4 149/2/4
f 150/1/4 151/1/4 152/1/4
f 152/1/4 151/1/4 153/1/4
f 154/2/4 155/2/4 159/2/4
f 159/2/4 155/2/4 160/2/4
f 157/2/4 158/2/4 163/2/4
f 160/2/4 161/2/4 163/2/4
f 159/2/4 160/2/4 163/2/4
f 158/2/4 159/2/4 163/2/4
f 156/2/4 157/2/4 163/2/4
f 163/2/4 161/2/4 164/2/4
f 164/2/4 161/2/4 165/2/4
f 162/2/4 163/2/4 166/2/4
f 163/2/4 164/2/4 166/2/4
f 166/2/4 164/2/4 167/2/4
f 168/1/4 169/1/4 171/1/4
f 171/1/4 169/1/4 172/1/4
f 170/1/4 171/1/4 173/1/4
f 173/1/4 171/1/4 174/1/4
f 175/2/4 176/2/4 177/2/4
f 177/2/4 176/2/4 178/2/4
f 181/2/5 180/2/5 179/2/5
f 182/2/5 180/2/5 181/2/5
f 185/2/5 184/2/5 183/2/5
f 186/2/5 184/2/5 185/2/5
f 190/2/5 188/2/5 187/2/5
f 191/2/5 188/2/5 190/2/5
f 191/2/5 190/2/5 189/2/5
f 192/2/5 188/2/5 191/2/5
f 193/2/5 191/2/5 189/2/5
f 194/2/5 191/2/5 193/2/5
f 197/2/5 196/2/5 195/2/5
f 198/2/5 196/2/5 197/2/5
f 201/2/5 200/2/5 199/2/5
f 202/2/5 200/2/5 201/2/5
f 205/2/5 204/2/5 203/2/5
f 206/2/5 204/2/5 205/2/5
f 209/1/5 208/1/5 207/1/5
f 210/1/5 208/1/5 209/1/5
f 213/1/5 212/1/5 211/1/5
f 214/1/5 213/1/5 211/1/5
f 215/1/5 214/1/5 211/1/5
f 216/1/5 214/1/5 215/1/5
f 220/1/5 218/1/5 217/1/5
f 221/2/5 220/2/5 219/2/5
f 222/1/5 218/1/5 220/1/5
f 222/2/5 220/2/5 221/2/5
f 223/1/5 218/1/5 222/1/5
f 224/1/5 218/1/5 223/1/5
f 225/2/6 226/2/6 227/2/6
f 227/2/6 226/2/6 228/2/6
f 229/2/6 230/2/6 231/2/6
f 231/2/6 230/2/6 232/2/6
f 233/2/6 234/2/6 237/2/6
f 237/2/6 234/2/6 238/2/6
f 235/2/6 236/2/6 239/2/6
f 239/2/6 236/2/6 240/2/6
f 241/2/6 242/2/6 243/2/6
f 243/2/6 242/2/6 244/2/6
f 245/1/6 246/1/6 249/1/6
f 249/1/6 246/1/6 250/1/6
f 247/2/6 248/2/6 251/2/6
f 251/2/6 248/2/6 252/2/6
f 255/2/6 256/2/6 257/2/6
f 257/2/6 256/2/6 258/2/6
f 253/1/6 254/1/6 259/1/6
f 259/1/6 254/1/6 260/1/6
f 261/1/6 262/1/6 264/1/6
f 263/2/6 264/2/6 265/2/6
f 264/1/6 262/1/6 266/1/6
f 265/2/6 264/2/6 266/2/6
f 266/1/6 262/1/6 267/1/6
f 267/1/6 262/1/6 268/1/6
